<?xml version="1.0" encoding="utf-8"?>
<!-- Generator: Adobe Illustrator 27.5.0, SVG Export Plug-In . SVG Version: 6.00 Build 0)  -->
<svg version="1.1" xmlns="http://www.w3.org/2000/svg" xmlns:xlink="http://www.w3.org/1999/xlink" x="0px" y="0px"
	 viewBox="0 0 500 500" style="enable-background:new 0 0 500 500;" xml:space="preserve">
<g id="BACKGROUND">
	<rect style="fill:#FFFFFF;" width="500" height="500"/>
</g>
<g id="OBJECTS">
	<g>
		
			<ellipse transform="matrix(0.7071 -0.7071 0.7071 0.7071 -98.7759 247.6245)" style="fill:#A3F5F8;" cx="249.521" cy="243.045" rx="214.84" ry="214.841"/>
		<g>
			<g>
				<g>
					<path style="fill:#E6FCFC;" d="M152.547,121.712H45.521c2.53-5.443,7.496-8.893,13.118-10.995
						c5.622-2.102,12.067-1.901,17.548,0.547c3.944-7.642,10.222-14.253,18.132-17.626c7.911-3.373,17.48-3.204,24.785,1.336
						s11.775,13.658,9.964,22.065c2.589-3.364,7.071-5.16,11.266-4.514C144.529,113.17,151.089,117.726,152.547,121.712z"/>
					<path style="fill:#E6FCFC;" d="M464.667,128.045H360.521c4.075-6.475,14.49-9.567,21.236-5.958
						c4.507-9.448,14.897-15.763,25.359-15.414c10.462,0.349,20.408,7.342,24.276,17.07c4.508-4.329,11.056-6.435,17.242-5.546
						C454.82,119.085,461.56,122.622,464.667,128.045z"/>
					<path style="fill:#E6FCFC;" d="M368.576,98.045H223.521c1.693-9.805,11.402-19.511,20.862-22.595
						c9.459-3.084,20.531-0.525,27.677,6.397c5.118-5.15,12.811-7.601,19.964-6.361c7.153,1.24,13.573,6.137,16.659,12.708
						c2.593-3.308,7.181-4.912,11.27-3.94c4.089,0.972,7.464,4.469,8.291,8.591c5.818-4.465,13.362-6.618,20.66-5.894
						C356.202,87.676,363.749,92.524,368.576,98.045z"/>
					<path style="fill:#E6FCFC;" d="M272.228,150.379h-87.707c0.991-4.782,4.295-8.957,8.704-11.058
						c4.409-2.101,9.798-2.013,14.136,0.23c4.023-5.141,11.057-7.73,17.454-6.424c6.396,1.306,11.852,6.445,13.538,12.752
						C247.967,139.246,263.909,142.181,272.228,150.379z"/>
					<path style="fill:#E6FCFC;" d="M229.856,63.045h-56.001c7.626-6.769,17.222-9.837,27.418-9.987
						C211.468,52.908,222.034,56.503,229.856,63.045z"/>
					<path style="fill:#E6FCFC;" d="M278.864,55.379h-24.343c2.496-4.022,6.288-6.099,10.997-6.59
						C270.226,48.298,275.591,51.958,278.864,55.379z"/>
					<path style="fill:#E6FCFC;" d="M198.523,119.045h-29.002c3.369-4.135,8.172-6.45,13.489-6.872
						C188.328,111.752,194.545,115.492,198.523,119.045z"/>
				</g>
				<g>
					<g>
						<path style="fill:#E6FCFC;" d="M437.87,99.563c-48.551,0.262-126.752,6.83-174.666,14.669
							C311.754,113.97,389.955,107.402,437.87,99.563z"/>
					</g>
					<g>
						<path style="fill:#E6FCFC;" d="M12.505,135.123c43.674,5.188,114.706,8.02,158.654,6.326
							C127.485,136.261,56.453,133.429,12.505,135.123z"/>
					</g>
				</g>
			</g>
			<path style="fill:#E6FCFC;" d="M219.577,193.686c-10.942-6.671-23.834-9.406-36.542-7.751h0
				c-15.233,1.984-30.614-2.349-42.571-11.993l-8.674-6.996c-10.898-8.789-24.682-13.198-38.658-12.364l-10.794,0.644
				c-9.22,0.55-18.356-1.192-26.64-4.962c-8.074,16.838-14.014,34.892-17.481,53.811h198.403L219.577,193.686z"/>
			<path style="fill:#E6FCFC;" d="M406.865,147.444c-6.209-2.431-13.228-1.544-18.637,2.354l-28.455,20.505
				c-4.257,3.067-9.799,3.709-14.645,1.696c-3.775-1.568-8.024-1.542-11.779,0.073l-6.625,2.849
				c-4.192,1.803-8.973,1.617-13.012-0.506l-8.591-4.516c-6.832-3.591-15.087-3.121-21.466,1.223l-21.634,14.73l15.584-4.623
				c6.679-1.981,13.907-0.501,19.269,3.947l22.788,18.902h141.165c-4.419-24.116-12.861-46.823-24.611-67.401l-10.045,7.91
				C420.699,148.896,413.352,149.984,406.865,147.444z"/>
		</g>
		<g>
			<path style="fill:#FFFFFF;" d="M34.681,243.045c0,7.274,0.366,14.462,1.072,21.55c3.231-0.132,6.515-0.789,9.568-1.71
				c7.496-2.26,14.824-5.82,22.653-5.758c4.9,0.039,9.722,1.514,14.62,1.372c12.107-0.352,22.022-10.297,34.002-12.078
				c8.947-1.33,17.846,2.037,26.818,3.183c11.951,1.527,24.385-1.025,34.768-7.136c6.845-4.028,6.229,1.031,13.172,4.887
				c6.943,3.856,13.496,9.387,21.426,9.827c4.823,0.267,9.596-1.432,14.418-1.156c14.115,0.809,24.225,17.836,38.277,16.279
				c9.208-1.021,15.789-9.847,24.788-12.048c6.787-1.66,13.886,0.7,20.244,3.599c6.358,2.899,12.627,6.421,19.565,7.249
				c3.134,0.374,7.522,0.271,10.325-1.406c2.567-1.536,4.673-4.274,7.275-5.963c5.683-3.689,12.278-5.981,19.036-6.529
				c9.897-0.802,19.604,2.044,28.632,5.853c9.38,3.958,17.506,9.564,28.198,7.666c10.789-1.915,19.102-10.78,29.59-13.95
				c3.509-1.061,7.206-1.385,10.853-1.066c0.244-4.192,0.382-8.413,0.382-12.666c0-1.383-0.026-2.76-0.052-4.137H34.733
				C34.707,240.286,34.681,241.662,34.681,243.045z"/>
			<path style="fill:#00B8C8;" d="M453.128,256.777c-10.488,3.171-18.802,12.035-29.59,13.95
				c-10.691,1.898-18.817-3.708-28.198-7.666c-9.028-3.809-18.735-6.655-28.632-5.853c-6.757,0.548-13.353,2.841-19.036,6.529
				c-2.602,1.689-4.708,4.428-7.275,5.963c-2.803,1.677-7.191,1.78-10.325,1.406c-6.938-0.829-13.207-4.351-19.565-7.249
				c-6.358-2.898-13.457-5.259-20.244-3.599c-8.999,2.201-15.58,11.027-24.788,12.048c-14.052,1.557-24.162-15.47-38.277-16.279
				c-4.823-0.276-9.595,1.423-14.418,1.156c-7.93-0.439-14.483-5.97-21.426-9.827c-6.943-3.856-6.327-8.915-13.172-4.887
				c-10.383,6.111-22.818,8.663-34.768,7.136c-8.972-1.146-17.871-4.514-26.818-3.183c-11.98,1.782-21.895,11.727-34.002,12.078
				c-4.898,0.142-9.72-1.333-14.62-1.372c-7.829-0.063-15.157,3.498-22.653,5.758c-3.054,0.921-6.337,1.577-9.568,1.71
				c0.638,6.405,1.569,12.723,2.757,18.951l418.6,14.995c0.708-2.654,1.37-5.326,1.977-8.02L83.053,279.916l378.335-1.147
				c1.266-7.56,2.138-15.252,2.592-23.058C460.334,255.392,456.637,255.716,453.128,256.777z"/>
			<path style="fill:#FFFFFF;" d="M459.088,290.521c0.875-3.878,1.639-7.797,2.301-11.752l-378.335,1.147L459.088,290.521z"/>
			<path style="fill:#00E9F0;" d="M249.521,457.886c99.461,0,183.122-67.593,207.589-159.345l-418.6-14.995
				C57.453,382.833,144.715,457.886,249.521,457.886z"/>
			<path style="fill:#FFFFFF;" d="M43.206,215.414c2.879-1.115,5.377-3.629,8.46-3.477c3.131,0.154,5.351,2.96,7.905,4.778
				c7.706,5.483,15.969,0.322,23.056-3.396c4.144-2.174,8.966-3.851,13.451-2.51c3.206,0.958,5.984,3.396,9.328,3.534
				c3.541,0.145,6.577-2.305,9.81-3.759c6.925-3.114,11.633,5.886,19.106,3.918c3.194-0.841,5.632-3.4,8.621-4.806
				c5.429-2.552,10.588,0.141,16.062,0.809c4.475,0.546,9.165-1.081,12.341-4.281c3.566-3.594,7.178,0.74,11.819,2.765
				c4.641,2.025,8.679,5.209,13.184,7.52c4.505,2.31,9.896,3.714,14.612,1.874c3.308-1.291,5.916-4.037,9.279-5.176
				c5.277-1.788,10.982,0.756,15.774,3.598c4.792,2.842,9.76,6.165,15.33,6.034c9.775-0.23,16.446-10.764,26.037-12.669
				c4.769-0.948,9.559,0.375,14.16,1.546c4.246,1.08,8.413,2.594,12.733,1.051c2.668-0.952,5.07-2.517,7.66-3.664
				c2.59-1.147,5.545-1.87,8.248-1.022c2.034,0.638,3.696,2.09,5.572,3.104c3.551,1.919,7.801,2.208,11.788,1.58
				c3.56-0.56,6.912-2.623,10.387-3.096c2.332-0.317,5.197,1.279,7.183,2.406c4.807,2.728,9.331,7.192,15.164,7.372
				c8.665,0.267,15.68-9.641,24.204-8.06c5.491,1.019,9.553,6.668,15.138,6.717c5.689,0.05,9.711-5.666,15.134-7.386
				c4.031-1.279,8.446-0.208,12.324,1.478c3.879,1.686,7.497,3.982,11.513,5.311c4.605,1.524,9.606,1.559,14.298,0.356
				c-0.542-4.641-1.225-9.238-2.058-13.783H38.216c-0.706,3.852-1.318,7.736-1.815,11.657
				C38.675,216.256,41.046,216.25,43.206,215.414z"/>
			<g>
				<path style="fill:#FFFFFF;" d="M35.326,226.47c-0.157,2.073-0.288,4.153-0.386,6.242h178.914L35.326,226.47z"/>
				<path style="fill:#4EF5F2;" d="M464.309,238.909c-0.039-2.073-0.102-4.139-0.2-6.197H228.855l234.888-6.085
					c-0.222-2.941-0.518-5.86-0.858-8.767c-4.692,1.203-9.693,1.168-14.298-0.356c-4.015-1.329-7.634-3.625-11.513-5.311
					c-3.879-1.686-8.293-2.757-12.324-1.478c-5.423,1.721-9.445,7.436-15.134,7.386c-5.584-0.049-9.647-5.698-15.138-6.717
					c-8.524-1.582-15.539,8.327-24.204,8.06c-5.833-0.18-10.357-4.644-15.164-7.372c-1.987-1.127-4.851-2.723-7.183-2.406
					c-3.475,0.473-6.827,2.536-10.387,3.096c-3.987,0.627-8.237,0.339-11.788-1.58c-1.875-1.014-3.538-2.465-5.572-3.104
					c-2.703-0.848-5.658-0.125-8.248,1.022c-2.59,1.147-4.993,2.712-7.66,3.664c-4.321,1.542-8.488,0.029-12.733-1.051
					c-4.601-1.171-9.391-2.494-14.16-1.546c-9.591,1.906-16.261,12.44-26.037,12.669c-5.57,0.131-10.538-3.192-15.33-6.034
					c-4.792-2.842-10.497-5.386-15.774-3.598c-3.363,1.14-5.971,3.886-9.279,5.176c-4.717,1.84-10.107,0.436-14.612-1.874
					c-4.505-2.31-8.544-5.495-13.184-7.52c-4.641-2.025-8.252-6.359-11.819-2.765c-3.175,3.2-7.866,4.827-12.341,4.281
					c-5.474-0.668-10.633-3.361-16.062-0.809c-2.989,1.405-5.427,3.965-8.621,4.806c-7.474,1.968-12.181-7.031-19.106-3.918
					c-3.233,1.454-6.27,3.905-9.81,3.759c-3.343-0.137-6.121-2.576-9.328-3.534c-4.484-1.34-9.306,0.336-13.451,2.51
					c-7.087,3.719-15.35,8.88-23.056,3.396c-2.554-1.817-4.775-4.624-7.905-4.778c-3.084-0.152-5.581,2.362-8.46,3.477
					c-2.16,0.836-4.531,0.842-6.805,0.32c-0.451,3.551-0.803,7.132-1.075,10.735l178.528,6.242H34.94
					c-0.096,2.059-0.168,4.124-0.207,6.197H464.309z"/>
			</g>
			<path style="fill:#FFFFFF;" d="M464.11,232.712c-0.096-2.035-0.215-4.065-0.367-6.085l-234.888,6.085H464.11z"/>
		</g>
		<g>
			<g>
				<g>
					<path style="fill:#978093;" d="M94.606,177.577c-12.729,18.444-18.108,41.165-18.996,63.557
						c-0.889,22.393,2.442,44.714,5.78,66.874l-18.709,6.365c-1.008-23.863-2.011-47.874,1.159-71.547s10.769-47.233,25.396-66.115
						L94.606,177.577z"/>
					<path style="fill:#645B79;" d="M62.681,314.374l18.709-6.365c-0.673-4.466-1.343-8.938-1.981-13.417
						c-6.455-1.839-12.517-5.048-17.67-9.349C61.867,294.956,62.271,304.677,62.681,314.374z"/>
					<path style="fill:#645B79;" d="M94.606,177.577l-5.371-0.866c-5.86,7.565-10.576,15.889-14.347,24.662
						c3.202-1.938,6.489-3.734,9.847-5.386C87.366,189.526,90.627,183.343,94.606,177.577z"/>
					<g>
						<g>
							<path style="fill:#CEB49D;" d="M72.968,286.385c-0.973-8.2-2.305-18.652-2.825-29.171
								c-0.573-10.516-0.331-21.05-0.213-29.307c-2.701,7.794-4.304,18.669-3.708,29.51
								C66.754,268.262,69.474,278.913,72.968,286.385z"/>
						</g>
						<g>
							<path style="fill:#CEB49D;" d="M73.053,240.794c0.292-4.212,0.602-9.594,1.304-14.936c0.676-5.345,1.74-10.629,2.525-14.778
								c-2.046,3.689-3.823,9.016-4.516,14.522C71.641,231.103,72.009,236.707,73.053,240.794z"/>
						</g>
					</g>
				</g>
				<g>
					<g>
						<path style="fill:#00C6C1;" d="M64.564,183.397c8.397-2.263,16.821-3.887,24.917-4.747
							c-11.667-10.969-29.618-14.72-44.702-9.343s-26.613,19.639-28.711,35.514c5.269-3.52,11.003-6.768,17.027-9.703
							c0.924-2.868,1.848-5.736,2.772-8.604c-0.127,2.493-0.254,4.985-0.382,7.478c2.554-1.194,5.152-2.332,7.789-3.41
							c1.066-3.228,2.352-6.384,3.874-9.424c-0.108,2.669-0.216,5.338-0.323,8.007c4.659-1.787,9.406-3.388,14.181-4.78
							c1.514-2.288,3.028-4.577,4.542-6.865C65.22,179.479,64.892,181.438,64.564,183.397z"/>
					</g>
					<g>
						<path style="fill:#009F9A;" d="M62.024,142.465c-14.238-6.771-31.871-5.831-45.308,2.415
							c5.573,1.179,11.979,3.333,18.63,6.001c4.327-1.396,8.85-2.188,13.395-2.332c-2.325,1.676-4.649,3.352-6.974,5.029
							c5.274,2.307,10.583,4.84,15.646,7.383c4.553-0.565,9.106-1.13,13.66-1.696c-2.631,1.549-5.263,3.098-7.894,4.647
							c14.824,7.726,26.301,14.738,26.301,14.738C87.396,163.023,76.262,149.236,62.024,142.465z"/>
					</g>
					<g>
						<path style="fill:#00C6C1;" d="M53.832,90.999c4.841,6.893,9.235,14.827,13.155,23.044c2.667,0.49,5.281,1.273,7.774,2.34
							c-1.898,0.713-3.796,1.427-5.693,2.14c1.2,2.655,2.348,5.325,3.448,7.986c2.074,0.134,4.148,0.268,6.222,0.401
							c-1.545,1.117-3.147,2.156-4.794,3.117c10.064,25.246,15.522,48.62,15.522,48.62C110.932,116.815,53.832,90.999,53.832,90.999
							z"/>
					</g>
					<g>
						<path style="fill:#009F9A;" d="M167.393,124.987c0,0-61.895-9.798-77.927,53.659c0,0,11.871-11.278,28.555-23.974
							c-1.574-1.183-3.147-2.366-4.721-3.549c2.458,0.295,4.879,0.866,7.223,1.66c4.29-3.206,8.86-6.469,13.598-9.638
							c-3.204-1.677-6.626-2.937-10.155-3.728c4.363,0.248,8.7,0.892,12.957,1.879C146.778,134.883,157.252,129.001,167.393,124.987
							z"/>
					</g>
					<g>
						<path style="fill:#00C6C1;" d="M168.805,190.4c-6.698-14.272-20.915-24.745-36.532-26.909
							c-15.616-2.165-32.494,3.239-42.821,15.151c0,0,8.275,0.274,19.871,1.208c-0.653-2.021-1.528-3.971-2.648-5.777
							c2.232,2.04,4.464,4.079,6.696,6.119c5.325,0.471,11.17,1.076,17.131,1.843c-0.467-2.752-0.934-5.505-1.401-8.257
							c1.869,2.941,3.738,5.883,5.606,8.824C147.198,184.364,159.782,186.868,168.805,190.4z"/>
					</g>
					<g>
						<path style="fill:#009F9A;" d="M131.936,195.393c-9.65-12.78-26.71-19.507-42.485-16.752
							c5.807,4.768,11.491,10.234,16.872,16.16c1.163-1.896,2.327-3.791,3.491-5.687c-0.043,2.875-0.375,5.741-0.947,8.559
							c3.349,3.851,6.559,7.872,9.587,12.017c1.653-3.345,3.306-6.689,4.959-10.034c-0.207,4.318-1.319,8.583-3.206,12.472
							c6.522,9.249,12.107,19.018,16.208,28.713C143.384,226.423,141.586,208.173,131.936,195.393z"/>
					</g>
				</g>
			</g>
			<g>
				<g>
					<path style="fill:#978093;" d="M117.395,305.879c-10.04-17.833-13.362-58.556,0-82.939l-5.592,1.558
						c-13.362,24.383-16.823,52.36-9.807,79.265L117.395,305.879z"/>
					<path style="fill:#645B79;" d="M117.395,222.939l-5.592,1.558c-2.658,4.85-4.917,9.844-6.787,14.942
						c2.099-1.789,4.594-3.104,7.25-3.842C113.584,231.073,115.279,226.801,117.395,222.939z"/>
					<path style="fill:#645B79;" d="M100.012,294.535c0.528,3.085,1.184,6.163,1.983,9.227l15.399,2.117
						c-1.272-2.26-2.435-4.889-3.471-7.804C109.102,297.944,104.314,296.716,100.012,294.535z"/>
					<g>
						<path style="fill:#CEB49D;" d="M104.429,293.656c-0.577-5.916-1.247-13.458-1.147-21.021
							c0.057-7.563,0.884-15.09,1.585-20.992c-2.517,5.377-4.357,13.123-4.411,20.963
							C100.346,280.445,102.025,288.228,104.429,293.656z"/>
					</g>
				</g>
				<g>
					<g>
						<g>
							<path style="fill:#008C6F;" d="M97.04,235.839c5.554-4.292,11.326-8.115,17.091-11.268
								c-12.096-4.551-26.634-1.776-36.203,6.911c-9.569,8.687-13.733,22.89-10.369,35.368c2.833-4.258,6.097-8.457,9.675-12.512
								c-0.202-2.423-0.403-4.847-0.605-7.27c0.679,1.896,1.357,3.793,2.036,5.69c1.532-1.682,3.114-3.336,4.745-4.957
								c-0.207-2.736-0.229-5.486-0.038-8.224c0.748,2.022,1.496,4.044,2.244,6.066c2.916-2.777,5.957-5.443,9.082-7.962
								c0.418-2.175,0.836-4.349,1.254-6.524C96.313,232.716,96.677,234.277,97.04,235.839z"/>
						</g>
						<g>
							<path style="fill:#00656C;" d="M85.321,201.902c-12.497-2.389-26.077,1.936-34.892,11.111
								c4.592-0.214,10.034,0.164,15.771,0.894c3.095-1.972,6.466-3.51,9.986-4.548c-1.474,1.782-2.948,3.565-4.422,5.347
								c4.589,0.728,9.251,1.625,13.722,2.58c3.441-1.368,6.882-2.737,10.322-4.105c-1.74,1.745-3.479,3.491-5.218,5.236
								c13.15,3.015,23.541,6.155,23.541,6.155C109.321,212.791,97.819,204.29,85.321,201.902z"/>
						</g>
						<g>
							<path style="fill:#008C6F;" d="M66.338,165.003c5.334,4.214,10.563,9.336,15.491,14.786c2.176-0.236,4.378-0.234,6.552,0.016
								c-1.303,0.99-2.606,1.979-3.909,2.969c1.54,1.777,3.045,3.576,4.51,5.38c1.635-0.375,3.27-0.75,4.904-1.125
								c-0.937,1.221-1.936,2.393-2.988,3.516c13.609,17.202,23.223,34.019,23.223,34.019
								C116.455,171.794,66.338,165.003,66.338,165.003z"/>
						</g>
						<g>
							<path style="fill:#00656C;" d="M169.817,172.329c0,0-50.574-0.338-55.697,52.235c0,0,8.11-10.434,19.888-22.581
								c-1.399-0.754-2.797-1.507-4.196-2.261c1.997-0.062,3.998,0.101,5.965,0.452c3.035-3.077,6.288-6.233,9.686-9.334
								c-2.759-0.951-5.642-1.542-8.554-1.747c3.512-0.329,7.05-0.34,10.566-0.066C154.563,182.717,162.21,176.758,169.817,172.329z
								"/>
						</g>
						<g>
							<path style="fill:#008C6F;" d="M178.622,229.994c-6.121-11.155-18.105-18.867-30.793-19.816
								c-12.688-0.949-26.008,4.261-33.72,14.381c0,0,6.679-0.2,16.066-0.038c-0.629-1.595-1.433-3.121-2.427-4.518
								c1.901,1.529,3.803,3.059,5.704,4.588c4.313,0.109,9.051,0.298,13.892,0.613c-0.516-2.193-1.032-4.386-1.548-6.579
								c1.655,2.274,3.309,4.548,4.964,6.822C160.912,226.231,171.175,227.608,178.622,229.994z"/>
						</g>
						<g>
							<path style="fill:#00656C;" d="M146.68,241.809c-6.592-11.116-19.671-18.043-32.571-17.25
								c4.23,4.346,8.298,9.24,12.082,14.476c1.103-1.416,2.207-2.832,3.31-4.248c-0.292,2.302-0.817,4.571-1.528,6.78
								c2.34,3.389,4.554,6.903,6.61,10.499c1.626-2.534,3.252-5.068,4.878-7.603c-0.554,3.445-1.829,6.765-3.691,9.715
								c4.4,8.004,8.003,16.34,10.422,24.484C153.076,267.724,153.272,252.925,146.68,241.809z"/>
						</g>
					</g>
				</g>
			</g>
		</g>
		<g>
			<g>
				<g>
					<path style="fill:#978093;" d="M415.167,177.577c12.729,18.444,18.108,41.165,18.996,63.557
						c0.889,22.393-2.442,44.714-5.78,66.874l18.709,6.365c1.008-23.863,2.011-47.874-1.159-71.547s-10.769-47.233-25.396-66.115
						L415.167,177.577z"/>
					<path style="fill:#645B79;" d="M447.092,314.374l-18.709-6.365c0.673-4.466,1.343-8.938,1.981-13.417
						c6.455-1.839,12.517-5.048,17.67-9.349C447.906,294.956,447.502,304.677,447.092,314.374z"/>
					<path style="fill:#645B79;" d="M415.167,177.577l5.371-0.866c5.86,7.565,10.576,15.889,14.347,24.662
						c-3.202-1.938-6.489-3.734-9.848-5.386C422.407,189.526,419.146,183.343,415.167,177.577z"/>
					<g>
						<g>
							<path style="fill:#CEB49D;" d="M436.805,286.385c0.973-8.2,2.305-18.652,2.825-29.171c0.573-10.516,0.331-21.05,0.212-29.307
								c2.701,7.794,4.303,18.669,3.708,29.51C443.019,268.262,440.299,278.913,436.805,286.385z"/>
						</g>
						<g>
							<path style="fill:#CEB49D;" d="M436.72,240.794c-0.292-4.212-0.602-9.594-1.304-14.936
								c-0.676-5.345-1.74-10.629-2.525-14.778c2.046,3.689,3.823,9.016,4.516,14.522
								C438.132,231.103,437.764,236.707,436.72,240.794z"/>
						</g>
					</g>
				</g>
				<g>
					<g>
						<path style="fill:#00C6C1;" d="M443.015,200.73c-6.675-7.301-14.341-14.948-22.9-22.673
							c17.335,3.825,33.048,14.612,41.591,26.279c7.549,10.308,10.921,23.146,8.956,33.742c-2.257-4.174-4.925-8.488-7.958-12.896
							c0.122-2.226,0.242-4.425,0.362-6.596c-0.528,1.576-1.065,3.181-1.613,4.817c-1.365-1.932-2.802-3.888-4.314-5.867
							c0.166-2.564,0.159-5.162-0.041-7.789c-0.672,1.656-1.358,3.347-2.059,5.075c-2.877-3.643-6.009-7.378-9.382-11.172
							c-0.435-2.387-0.869-4.771-1.303-7.151C443.913,197.889,443.467,199.3,443.015,200.73z"/>
					</g>
					<g>
						<path style="fill:#009F9A;" d="M463.52,178.942c13.228,7.407,22.704,23.051,23.975,41.025
							c-4.472-4.467-10.184-8.95-16.354-13.215c-1.277-4.776-3.145-9.235-5.529-13.215c-0.134,3.046-0.27,6.133-0.408,9.261
							c-4.867-3.13-9.868-6.096-14.673-8.802c-1.842-4.166-3.649-8.253-5.421-12.261c-0.005,3.044-0.01,6.131-0.015,9.261
							c-13.697-7.413-24.803-12.346-24.803-12.346C434.293,171.241,450.814,171.827,463.52,178.942z"/>
					</g>
					<g>
						<path style="fill:#00C6C1;" d="M477.816,155.281c-4.511,0.136-9.203,0.99-13.931,2.31c-1.984-1.388-4.021-2.62-6.068-3.66
							c1.127,1.475,2.261,2.958,3.401,4.45c-1.602,0.503-3.207,1.056-4.808,1.647c-1.556-1.25-3.113-2.501-4.673-3.754
							c0.769,1.515,1.612,3.042,2.521,4.572c-17.357,6.793-33.914,17.787-33.914,17.787
							C432.283,132.061,477.816,155.281,477.816,155.281z"/>
					</g>
					<g>
						<path style="fill:#009F9A;" d="M325.874,172.786c0,0,48.008-40.277,94.433,5.859c0,0-15.984-3.553-36.824-5.842
							c0.74-1.824,1.479-3.649,2.219-5.473c-1.955,1.519-3.736,3.255-5.337,5.143c-5.328-0.539-10.926-0.982-16.62-1.257
							c1.883-3.087,4.167-5.93,6.784-8.426c-3.612,2.46-6.998,5.245-10.138,8.284C348.642,170.652,336.634,171.004,325.874,172.786z
							"/>
					</g>
					<g>
						<path style="fill:#00C6C1;" d="M354.154,223.996c-0.236-15.764,7.951-31.409,21.038-40.2
							c13.087-8.791,30.625-11.333,45.129-5.154c0,0-7.317,3.874-17.33,9.796c-0.299-2.103-0.367-4.239-0.152-6.353
							c-1.112,2.812-2.224,5.623-3.336,8.435c-4.58,2.758-9.568,5.863-14.589,9.166c-0.787-2.678-1.574-5.357-2.36-8.036
							c-0.39,3.463-0.781,6.926-1.171,10.389C370.928,209.099,360.715,216.866,354.154,223.996z"/>
					</g>
					<g>
						<path style="fill:#009F9A;" d="M393.814,215.829c1.132-15.974,11.777-30.907,26.507-37.188
							c-2.273,7.162-4.063,14.841-5.349,22.742c-2.008-0.956-4.017-1.912-6.025-2.868c1.602,2.388,3.442,4.61,5.456,6.662
							c-0.711,5.054-1.213,10.174-1.495,15.299c-3.208-1.905-6.416-3.809-9.624-5.714c2.525,3.509,5.781,6.48,9.481,8.714
							c-0.432,11.309,0.204,22.544,2.045,32.908C401.113,248.089,392.682,231.803,393.814,215.829z"/>
					</g>
				</g>
			</g>
		</g>
		<g>
			<path style="fill:#FFD557;" d="M394.279,305.485c-31.061,10.347-64.15,14.622-96.819,12.441
				c-13.675-0.913-26.38-3.656-40.159-2.098c-13.303,1.504-26.278,5.017-39.468,7.202c-16.891,2.799-34.934,2.902-50.476-5.12
				c-14.496-7.482-32.032-11.464-48.253-14.083c-24.51-3.958-50.048-0.963-73.103,8.215c0.883,2.606,1.828,5.184,2.808,7.744
				c9.084-4.144,18.641-7.252,28.432-9.21c4.304-0.861,8.832-1.492,13.026-0.198c4.194,1.294,7.935,5.031,7.867,9.42
				c-0.094,6.104-6.731,9.723-12.489,11.753c-5.758,2.03-12.532,4.77-13.751,10.753c-0.802,3.932,1.367,8.055,4.61,10.42
				c3.242,2.365,7.363,3.217,11.374,3.366c22.4,0.835,40.759-17.655,62.545-22.931c16.48-3.99,33.742-0.162,50.695-0.506
				c30.885-0.628,57.737-15.282,88.783-7.079c18.144,4.794,35.151,13.257,53.271,18.141c5.599,1.509,11.441,2.678,17.174,1.804
				c4.84-0.738,10.289-3.18,13.059-7.371c2.223-3.364,2.198-8.481-0.99-10.95c-1.19-0.921-2.67-1.388-3.918-2.228
				c-1.249-0.84-2.306-2.308-1.926-3.764c0.318-1.216,1.507-1.975,2.639-2.521c7.4-3.572,17.193-2.84,24.59,0.498
				c4.376,1.975,8.358,4.968,13.048,5.992c13.708,2.993,24.822-11.328,38.358-15.023c2.837-0.774,5.78-0.988,8.69-0.734
				c0.581-1.79,1.139-3.59,1.674-5.4C435.423,298.724,412.739,299.336,394.279,305.485z"/>
			<path style="fill:#FFB25B;" d="M445.205,310.154c-13.536,3.695-24.65,18.016-38.358,15.023c-4.69-1.024-8.672-4.017-13.048-5.992
				c-7.397-3.339-17.19-4.07-24.59-0.498c-1.132,0.546-2.321,1.305-2.639,2.521c-0.38,1.456,0.677,2.924,1.926,3.764
				c1.249,0.84,2.729,1.307,3.918,2.228c3.188,2.468,3.213,7.586,0.99,10.95c-2.77,4.191-8.219,6.633-13.059,7.371
				c-5.733,0.874-11.575-0.295-17.174-1.804c-18.12-4.884-35.126-13.347-53.271-18.141c-31.046-8.203-57.898,6.451-88.783,7.079
				c-16.953,0.345-34.215-3.484-50.695,0.506c-21.786,5.275-40.145,23.766-62.545,22.931c-4.01-0.15-8.132-1.001-11.374-3.366
				c-3.242-2.365-5.411-6.488-4.61-10.42c1.22-5.982,7.994-8.722,13.751-10.753c5.758-2.03,12.394-5.649,12.489-11.753
				c0.068-4.389-3.673-8.126-7.867-9.42c-4.194-1.294-8.722-0.662-13.026,0.198c-9.791,1.958-19.348,5.066-28.432,9.21
				c30.894,80.75,109.1,138.099,200.712,138.099c95.487,0,176.409-62.301,204.374-148.466
				C450.986,309.166,448.042,309.379,445.205,310.154z"/>
			<path style="fill:#FFB25B;" d="M188.356,446.805c-12.62-2.327-25.526,0.567-38.251,2.228
				c-12.725,1.661-26.886,0.717-37.693-6.203c6.149,0.347,12.167-1.724,17.846-4.107c5.679-2.382,11.286-5.129,17.341-6.256
				c6.055-1.127,12.798-0.403,17.525,3.545C170.619,440.601,181.872,443.772,188.356,446.805z"/>
			<path style="fill:#FFB25B;" d="M186.663,458.929c-1.239-0.242-2.522-0.275-3.723-0.663c-2.774-0.896-4.646-3.506-7.256-4.803
				c-2.691-1.337-5.94-1.136-8.771-0.13c-2.831,1.006-5.334,2.745-7.799,4.463c-1.933,1.348-4.813,3.029-4.813,5.18
				c0,2.223,8.245,4.025,18.417,4.025c10.171,0,18.417-1.802,18.417-4.025C191.135,460.935,187.902,459.171,186.663,458.929z"/>
			<path style="fill:#FFB25B;" d="M189.498,454.525c6.622,3.895,15.208,2.677,22.112,6.046c2.895,1.413,5.393,3.589,8.39,4.769
				c2.997,1.18,6.927,1.038,8.846-1.55c1.548-2.088,1.226-5.13-0.138-7.343c-1.364-2.213-3.57-3.759-5.785-5.121
				c-9.23-5.676-19.732-9.254-30.497-10.456c-3.031-0.338-9.788-1.702-10.386,2.809
				C181.501,447.748,186.387,452.695,189.498,454.525z"/>
			<path style="fill:#FFB25B;" d="M244.896,464.71c0,1.265-2.63,2.29-5.875,2.29c-3.245,0-5.875-1.025-5.875-2.29
				c0-1.265,2.63-2.29,5.875-2.29C242.266,462.42,244.896,463.445,244.896,464.71z"/>
			<path style="fill:#FFB25B;" d="M214.896,467.233c0,0.932-2.006,1.688-4.479,1.688c-2.474,0-4.479-0.755-4.479-1.688
				c0-0.932,2.006-1.688,4.479-1.688C212.891,465.545,214.896,466.301,214.896,467.233z"/>
			<ellipse style="fill:#FFB25B;" cx="222.396" cy="470.358" rx="3.375" ry="1.438"/>
			<path style="fill:#FFB25B;" d="M150.384,456.496c0,1.803-3.999,3.264-8.932,3.264s-8.932-1.461-8.932-3.264
				c0-1.803,3.999-3.264,8.932-3.264S150.384,454.693,150.384,456.496z"/>
			<ellipse style="fill:#FFB25B;" cx="129.334" cy="453.108" rx="3.188" ry="1.313"/>
			<ellipse style="fill:#FFB25B;" cx="148.396" cy="462.92" rx="2.625" ry="1.125"/>
			<g>
				<path style="fill:#EF973F;" d="M126.409,362.202c-2.157,1.37-3.662,4.128-2.761,6.52c0.723,1.918,2.785,3.068,4.821,3.305
					c2.036,0.236,4.077-0.274,6.063-0.781c2.147-0.547,4.373-1.134,6.074-2.554s2.708-3.933,1.717-5.915
					C139.899,357.928,129.949,359.953,126.409,362.202z"/>
				<path style="fill:#EF973F;" d="M139.249,349.82c0.473,0.28,1.041,0.338,1.589,0.389c0.914,0.086,1.829,0.171,2.743,0.257
					c0.425,0.04,0.862,0.079,1.27-0.043c0.409-0.122,0.788-0.444,0.844-0.867c0.078-0.588-0.46-1.068-0.982-1.349
					c-1.215-0.653-2.83-0.898-4.206-0.831C139.225,347.439,137.576,348.829,139.249,349.82z"/>
				<path style="fill:#EF973F;" d="M169.863,395.885c1.09,0.842,2.575,0.893,3.952,0.91c2.032,0.024,4.327-0.059,5.698-1.559
					c3.042-3.329-1.593-7.607-5.092-6.983C171.386,388.794,165.702,392.672,169.863,395.885z"/>
				<ellipse style="fill:#EF973F;" cx="162.959" cy="402.483" rx="3.813" ry="1.688"/>
				<path style="fill:#EF973F;" d="M189.788,385.983c0,0.656-1.095,1.188-2.446,1.188c-1.351,0-2.446-0.532-2.446-1.188
					c0-0.656,1.095-1.188,2.446-1.188C188.693,384.795,189.788,385.327,189.788,385.983z"/>
				<path style="fill:#EF973F;" d="M163.646,384.792c0,0.658-1.2,1.19-2.68,1.19c-1.48,0-2.68-0.533-2.68-1.19
					c0-0.657,1.2-1.19,2.68-1.19C162.446,383.602,163.646,384.135,163.646,384.792z"/>
				<ellipse style="fill:#EF973F;" cx="229.209" cy="401.233" rx="6.813" ry="2.938"/>
				<path style="fill:#EF973F;" d="M250.785,394.647c0,1.188-1.626,2.152-3.632,2.152c-2.006,0-3.632-0.963-3.632-2.152
					c0-1.188,1.626-2.152,3.632-2.152C249.159,392.495,250.785,393.458,250.785,394.647z"/>
				<path style="fill:#EF973F;" d="M206.609,412.198c0.643,0.451,1.47,0.667,2.235,0.49c0.765-0.177,1.44-0.781,1.611-1.548
					c0.423-1.896-1.983-3.213-3.604-2.808C204.904,408.818,205.232,411.233,206.609,412.198z"/>
				<path style="fill:#EF973F;" d="M227.688,387.541c0,0.642-0.821,1.163-1.833,1.163c-1.013,0-1.833-0.521-1.833-1.163
					c0-0.642,0.821-1.163,1.833-1.163C226.867,386.379,227.688,386.899,227.688,387.541z"/>
				<path style="fill:#EF973F;" d="M357.045,394.072c-0.994,1.12-2.061,2.552-1.586,3.972c0.343,1.025,1.435,1.653,2.51,1.765
					c1.075,0.112,2.146-0.194,3.179-0.515c2.312-0.717,4.621-1.536,6.652-2.853c3.403-2.207,7.58-8.216,2.006-10.502
					C364.115,383.605,360.158,390.568,357.045,394.072z"/>
				<path style="fill:#EF973F;" d="M379.351,391.78c0.824,0.621,2.002,0.207,2.901-0.299c1.973-1.11,5.356-5.639,0.988-5.729
					C380.896,385.703,376.638,389.734,379.351,391.78z"/>
				<path style="fill:#EF973F;" d="M381.142,373.42c1.5-0.442,3-0.884,4.5-1.326c0.417-0.123,0.844-0.251,1.185-0.52
					c2.476-1.947-4.528-2.98-5.891-2.534C378.112,369.964,376.99,374.644,381.142,373.42z"/>
				<path style="fill:#EF973F;" d="M318.654,428.713c-0.587,0.352-1.221,0.763-1.414,1.42c-0.241,0.821,0.354,1.706,1.129,2.067
					c0.776,0.361,1.673,0.32,2.524,0.227c3.529-0.388,6.967-1.574,9.985-3.444c1.632-1.011,3.97-2.763,3.944-4.93
					c-0.019-1.613-1.495-2.321-2.939-2.36c-2.223-0.06-4.15,1.571-5.956,2.655C323.503,425.803,321.079,427.258,318.654,428.713z"/>
				<path style="fill:#EF973F;" d="M304.803,426.748c0.073,0.394,0.453,0.671,0.846,0.75c0.392,0.079,0.797-0.001,1.189-0.08
					c1.056-0.213,6.693-0.889,3.9-2.664C309.404,423.906,304.403,424.579,304.803,426.748z"/>
				<path style="fill:#EF973F;" d="M337.869,411.502c0.299,0.464-0.706,1.644-2.244,2.634c-1.538,0.99-3.028,1.417-3.326,0.952
					c-0.299-0.464,0.706-1.644,2.244-2.634C336.081,411.464,337.57,411.038,337.869,411.502z"/>
				<path style="fill:#EF973F;" d="M238.416,443.492c-1.081,0.201-2.471,0.834-2.23,1.907c0.173,0.772,1.103,1.063,1.883,1.201
					c4.673,0.826,20.44,4.408,21.165-3.611C259.784,436.922,242.222,442.783,238.416,443.492z"/>
				<ellipse style="fill:#EF973F;" cx="272.646" cy="443.295" rx="3.375" ry="1.5"/>
				<ellipse style="fill:#EF973F;" cx="264.426" cy="435.483" rx="3.154" ry="1.438"/>
				<path style="fill:#EF973F;" d="M330.297,358.236c0.59,0.462,1.191,0.936,1.599,1.565c0.408,0.629,0.595,1.451,0.293,2.137
					c-0.46,1.042-1.785,1.349-2.924,1.364c-2.597,0.035-10.526-1.816-8.965-5.92C321.929,353.098,328.184,356.581,330.297,358.236z"
					/>
				<path style="fill:#EF973F;" d="M321.947,351.49c0.453,0.078,0.906,0.157,1.361,0.219c0.543,0.074,1.199,0.078,1.517-0.368
					c0.218-0.306,0.187-0.74,0.004-1.069c-0.183-0.328-0.493-0.567-0.815-0.761c-0.933-0.561-3.025-1.281-3.972-0.372
					C318.766,350.365,321.031,351.331,321.947,351.49z"/>
				<path style="fill:#EF973F;" d="M398.828,340.617c-0.535,0.233-1.062,0.524-1.441,0.968c-0.379,0.444-0.59,1.066-0.423,1.625
					c0.172,0.576,0.709,0.984,1.283,1.162c0.574,0.179,1.187,0.165,1.788,0.151c2.319-0.057,4.639-0.115,6.958-0.172
					c0.472-0.012,0.966-0.029,1.378-0.26c0.724-0.405,0.971-1.404,0.681-2.181c-0.291-0.777-1.008-1.333-1.784-1.626
					c-1.249-0.472-2.665-0.368-3.975-0.449C401.771,339.742,400.226,340.008,398.828,340.617z"/>
				<path style="fill:#EF973F;" d="M390.694,338.172c0.18,0.304,0.53,0.476,0.88,0.525c0.35,0.05,0.705-0.006,1.054-0.061
					c0.767-0.122,1.534-0.243,2.301-0.365c0.248-0.039,0.5-0.08,0.727-0.189c0.227-0.109,0.428-0.298,0.491-0.541
					c0.095-0.369-0.16-0.756-0.495-0.939c-0.566-0.31-1.284-0.217-1.904-0.292c-0.423-0.051-0.85-0.203-1.28-0.178
					C391.579,336.184,390.056,337.098,390.694,338.172z"/>
				<path style="fill:#EF973F;" d="M415.039,346.915c0.446,0.235,0.981,0.264,1.472,0.152c0.185-0.042,0.372-0.107,0.512-0.236
					c1.037-0.961-0.746-2.407-1.708-2.361C413.934,344.537,413.993,346.365,415.039,346.915z"/>
				<path style="fill:#EF973F;" d="M413.566,340.926c0.384,0.293,0.993,0.227,1.306-0.14c0.313-0.368,0.28-0.979-0.07-1.311
					C413.819,338.542,412.497,340.111,413.566,340.926z"/>
				<path style="fill:#EF973F;" d="M95.202,373.66c0.423,0.312,0.885,0.692,0.92,1.216c0.032,0.478-0.33,0.914-0.767,1.109
					c-0.437,0.195-0.934,0.196-1.412,0.165c-2.685-0.173-10.365-2.799-8.92-6.736C86.487,365.429,93.518,372.418,95.202,373.66z"/>
				<path style="fill:#EF973F;" d="M93.307,364.124c-1.151-1.593-4.215-0.759-3.053,1.332
					C91.32,367.372,94.713,366.071,93.307,364.124z"/>
			</g>
			<path style="fill:#FFD557;" d="M378.677,351.88c-22.086,5.139-41.877,16.474-60.918,28.127
				c-19.041,11.653-37.984,23.909-59.341,31.263c-26.572,9.149-55.707,10.228-83.818,7.032
				c-22.522-2.561-44.562-7.768-66.435-13.487c5.473,4.787,11.192,9.298,17.133,13.517c29.941,6.995,60.173,13.03,90.858,13.711
				c36.531,0.811,74.196-6.502,104.426-27.028c12.67-8.603,23.755-19.308,35.789-28.781c12.034-9.473,25.441-17.886,40.48-20.78
				c11.056-2.128,23.145-0.779,32.866,4.581c1.02-1.568,2.027-3.146,3.007-4.743C416.268,348.158,396.513,347.73,378.677,351.88z"/>
		</g>
		<g>
			<g>
				<g>
					<path style="fill:#8D415F;" d="M138.284,178.431L138.284,178.431c-18.999,63.273-0.506,156.03,41.307,207.178l0,0
						c2.026,2.479,4.234,3.48,6.165,3.095l-42.965-215.496C140.86,173.593,139.205,175.365,138.284,178.431z"/>
					<path style="fill:#D46571;" d="M148.957,176.303L148.957,176.303c-2.027-2.479-4.234-3.48-6.166-3.095l42.965,215.496
						c1.931-0.385,3.586-2.157,4.507-5.223v0C209.263,320.208,190.77,227.452,148.957,176.303z"/>
					<path style="fill:#E8936B;" d="M179.55,339.673c2.322,11.645,2.667,21.391,0.771,21.769c-1.896,0.378-5.315-8.756-7.636-20.401
						s-2.667-21.391-0.771-21.769C173.809,318.895,177.228,328.028,179.55,339.673z"/>
				</g>
				<path style="fill:#FFB25B;" d="M162.361,369.345c6.544-0.089,12.585-3.489,19.15-3.134c2.439,0.132,4.91,0.585,7.307,0.983
					c2.213,0.368,4.464,0.038,6.668,0.15c-1.272,6.136-2.488,12.707-4.674,18.58c-0.737,1.979-1.641,4.082-3.462,5.153
					c-1.467,0.863-3.316,0.888-4.947,0.402c-1.631-0.487-3.082-1.438-4.45-2.452C171.273,384.074,165.525,377.036,162.361,369.345z"
					/>
			</g>
			<g>
				<g>
					
						<ellipse transform="matrix(0.1577 -0.9875 0.9875 0.1577 -27.6167 573.4024)" style="fill:#FBEED1;" cx="322.32" cy="302.89" rx="49.988" ry="49.988"/>
					<g>
						<path style="fill:#E8916A;" d="M338.471,255.584c6.205,9.375,10.391,27.041,10.391,47.306s-4.186,37.931-10.391,47.306
							c8.224-2.807,15.483-7.69,21.146-14.035c5.724-9.202,9.139-20.737,9.139-33.27c0-12.533-3.415-24.068-9.139-33.27
							C353.954,263.275,346.695,258.392,338.471,255.584z"/>
						<path style="fill:#E8916A;" d="M307.722,302.89c0-22.349,5.089-41.543,12.366-49.932c-7.198,0.317-13.996,2.159-20.089,5.206
							c-11.378,9.833-18.832,26.193-18.832,44.726c0,18.533,7.454,34.893,18.832,44.726c6.093,3.047,12.891,4.889,20.089,5.206
							C312.811,344.434,307.722,325.239,307.722,302.89z"/>
					</g>
					<g>
						<path style="fill:#F7DD8C;" d="M371.694,310.717c-1.239,2.057-2.698,3.988-4.318,5.773
							c-1.503,7.251-4.179,13.917-7.759,19.671c-0.674,0.755-1.374,1.486-2.092,2.199
							C364.896,331.042,370.006,321.45,371.694,310.717z"/>
						<path style="fill:#F7DD8C;" d="M282.013,313.522c-4.18-4.937-7.41-10.652-9.291-16.777c-0.247,2.015-0.389,4.063-0.389,6.145
							c0,19.583,11.267,36.525,27.667,44.726C290.856,339.714,284.256,327.594,282.013,313.522z"/>
						<path style="fill:#CC6164;" d="M367.376,316.49c-1.31,1.442-2.723,2.79-4.227,4.014c-4.949,4.027-10.761,6.851-16.871,8.754
							c-1.832,8.725-4.534,15.993-7.807,20.938c5.111-1.745,9.848-4.293,14.062-7.494c0.042-0.032,0.084-0.063,0.126-0.095
							c1.627-1.244,3.173-2.587,4.633-4.018c0.078-0.076,0.156-0.152,0.233-0.229c0.718-0.713,1.418-1.444,2.092-2.199
							C363.197,330.407,365.873,323.741,367.376,316.49z"/>
						<path style="fill:#CC6164;" d="M294.634,324.258c-4.754-2.836-9.036-6.501-12.622-10.736
							c2.244,14.072,8.843,26.192,17.986,34.094c0,0,0,0,0,0c6.093,3.047,12.891,4.889,20.089,5.206c0,0,0,0,0,0
							c-3.973-4.58-7.291-12.386-9.488-22.164C304.994,329.331,299.596,327.218,294.634,324.258z"/>
						<path style="fill:#F7DD8C;" d="M346.279,329.258c-2.278,0.709-4.593,1.301-6.926,1.764
							c-9.458,1.879-19.395,1.852-28.752-0.364c2.197,9.777,5.515,17.584,9.488,22.164c0.741,0.033,1.484,0.056,2.232,0.056
							c5.655,0,11.088-0.943,16.155-2.676l-0.004-0.007C341.745,345.25,344.447,337.982,346.279,329.258z"/>
					</g>
					<g>
						<g>
							<path style="fill:#FFFFFF;" d="M348.177,267.551c-0.299,0-0.6-0.089-0.862-0.273c-5.22-3.671-11.043-6.099-17.309-7.216
								c-0.815-0.146-1.358-0.924-1.213-1.74s0.924-1.351,1.74-1.213c6.699,1.194,12.927,3.79,18.508,7.716
								c0.678,0.477,0.84,1.412,0.363,2.09C349.112,267.329,348.648,267.551,348.177,267.551z"/>
						</g>
						<g>
							<path style="fill:#FFFFFF;" d="M289.794,273.286c-0.373,0-0.746-0.138-1.037-0.416c-0.599-0.572-0.619-1.522-0.047-2.121
								c8.86-9.263,20.797-14.363,33.61-14.363c0.828,0,1.5,0.672,1.5,1.5c0,0.828-0.672,1.5-1.5,1.5
								c-11.987,0-23.153,4.772-31.442,13.438C290.583,273.131,290.188,273.286,289.794,273.286z"/>
						</g>
						<g>
							<path style="fill:#FFFFFF;" d="M279.915,289.283c-0.167,0-0.337-0.027-0.504-0.087c-0.78-0.278-1.188-1.136-0.909-1.917
								c1.1-3.086,2.534-6.064,4.263-8.854c0.436-0.705,1.363-0.92,2.065-0.485c0.704,0.436,0.921,1.361,0.485,2.065
								c-1.618,2.609-2.959,5.395-3.987,8.282C281.109,288.9,280.531,289.283,279.915,289.283z"/>
						</g>
					</g>
				</g>
				<path style="fill:#FFB25B;" d="M347.992,347.608c-2.926,1.804-6.604,1.876-10.004,1.377c-3.401-0.498-6.732-1.508-10.165-1.679
					c-4.956-0.246-9.808,1.266-14.713,2.011c-4.906,0.745-10.356,0.58-14.24-2.509c3.27,3.934,8.056,6.106,13.102,6.954
					c6.142,1.032,12.432,1.387,18.608,0.583C336.755,353.541,342.78,351.018,347.992,347.608z"/>
			</g>
			<g>
				<g>
					<g>
						<g>
							<path style="fill:#645B79;" d="M272.966,302.89h-5.495v-10.886c0-2.231-1.816-4.046-4.047-4.046h-27.991
								c-2.231,0-4.046,1.815-4.046,4.046v10.886h-5.495v-10.886c0-5.261,4.28-9.541,9.541-9.541h27.991
								c5.262,0,9.542,4.28,9.542,9.541V302.89z"/>
						</g>
						<g>
							<rect x="225.891" y="296.953" style="fill:#514B63;" width="5.495" height="5.938"/>
							<rect x="267.471" y="296.953" style="fill:#514B63;" width="5.495" height="5.938"/>
						</g>
					</g>
					<g>
						<path style="fill:#978093;" d="M301.631,379.173H197.225c-3.364,0-6.09-2.727-6.09-6.09v-66.486c0-3.364,2.727-6.09,6.09-6.09
							h104.406c3.364,0,6.09,2.727,6.09,6.09v66.486C307.722,376.446,304.995,379.173,301.631,379.173z"/>
						<g>
							<g>
								<path style="fill:#645B79;" d="M199.699,299.408h-2.473c-3.964,0-7.189,3.225-7.189,7.189v1.657h9.662V299.408z"/>
								<path style="fill:#645B79;" d="M308.82,308.253v-1.657c0-3.963-3.225-7.189-7.189-7.189h-2.474v8.846H308.82z"/>
								<path style="fill:#645B79;" d="M299.158,380.272h2.474c3.964,0,7.189-3.225,7.189-7.19v-1.656h-9.662V380.272z"/>
								<path style="fill:#645B79;" d="M190.036,371.426v1.656c0,3.965,3.225,7.19,7.189,7.19h2.473v-8.846H190.036z"/>
							</g>
							<g>
								<rect x="219.92" y="299.956" style="fill:#645B79;" width="11.356" height="79.766"/>
								<rect x="267.58" y="299.956" style="fill:#645B79;" width="11.356" height="79.766"/>
							</g>
						</g>
					</g>
				</g>
				<path style="fill:#FFB25B;" d="M311.134,380.7c-2.709-3.494-7.688-4.291-12.092-3.903c-4.404,0.388-8.765,1.684-13.169,1.302
					c-4.693-0.407-9.045-2.692-13.716-3.302c-8.967-1.17-17.85,3.925-26.832,2.876c-5.254-0.614-10.163-3.307-15.452-3.434
					c-6.028-0.146-11.681,3.054-17.698,3.441c-3.863,0.248-7.698-0.674-11.562-0.902c-3.864-0.228-8.08,0.389-10.825,3.118
					l3.774,2.306H308.82L311.134,380.7z"/>
			</g>
			<g>
				<g>
					<ellipse style="fill:#FBEED1;" cx="191.135" cy="376.166" rx="64.794" ry="7.377"/>
					<g>
						<path style="fill:#D46571;" d="M161.655,367.897c-0.124,1.103-0.194,2.222-0.194,3.358v2.978
							c0,1.866,13.286,3.379,29.675,3.379s29.675-1.513,29.675-3.379v-2.978c0-1.136-0.07-2.255-0.194-3.358
							c-1.669,1.686-14.227,2.996-29.48,2.996C175.882,370.894,163.323,369.583,161.655,367.897z"/>
						<path style="fill:#FBEED1;" d="M191.135,341.581L191.135,341.581c-15.253,0-27.812,11.51-29.48,26.317
							c1.668,1.686,14.227,2.996,29.48,2.996c15.253,0,27.812-1.31,29.48-2.996C218.946,353.091,206.388,341.581,191.135,341.581z"
							/>
					</g>
					<g>
						<g>
							<path style="fill:#D46571;" d="M215.103,366.876c1.118-0.623,2.53-1.175,3.619-0.502c1.086,0.67,1.229,2.213,0.929,3.454
								c-0.299,1.24-0.917,2.425-0.917,3.701c-0.001,1.15,0.501,2.234,0.74,3.359c0.24,1.125,0.132,2.477-0.788,3.167
								c-1.102,0.827-2.661,0.263-3.907-0.324c-1.526-0.719-3.053-1.439-4.579-2.158c-0.852-0.401-1.726-0.819-2.362-1.514
								c-1.827-1.996-0.229-3.562,1.295-4.927C210.958,369.498,212.963,368.067,215.103,366.876z"/>
							<path style="fill:#8D415F;" d="M207.915,372.332c-0.043,0.689,0.112,1.39,0.499,1.964c0.531,0.786,1.378,1.293,2.21,1.748
								c1.468,0.802,2.979,1.524,4.525,2.162c0.489,0.202,0.99,0.397,1.517,0.439c0.527,0.042,1.091-0.09,1.465-0.464
								c0.564-0.565,0.537-1.495,0.294-2.255c-0.243-0.76-0.661-1.471-0.77-2.261c-0.148-1.079,0.303-2.146,0.816-3.106
								c0.468-0.875,0.991-1.744,1.224-2.702c0.142,0.633,0.106,1.34-0.046,1.971c-0.299,1.24-0.917,2.425-0.917,3.701
								c-0.001,1.15,0.501,2.234,0.74,3.359c0.24,1.125,0.132,2.477-0.788,3.167c-1.102,0.827-2.661,0.263-3.907-0.324
								c-1.526-0.719-3.053-1.439-4.579-2.158c-0.852-0.401-1.726-0.82-2.362-1.514
								C206.525,374.621,206.986,373.408,207.915,372.332z"/>
						</g>
						<g>
							<path style="fill:#D46571;" d="M199.977,370.738c0.743-0.022,1.48,0.258,2.218,0.173c1.06-0.122,1.922-0.969,2.977-1.13
								c1.248-0.19,2.483,0.672,3.054,1.799c0.571,1.126,0.595,2.452,0.447,3.706c-0.064,0.539-0.16,1.084-0.412,1.564
								c-0.252,0.48-0.683,0.892-1.214,1.004c-0.421,0.089-0.855-0.015-1.281-0.077c-1.038-0.149-2.112-0.039-3.098,0.319
								c-0.78,0.283-1.583,0.726-2.388,0.527c-0.519-0.128-0.946-0.515-1.227-0.97c-0.281-0.455-0.434-0.976-0.566-1.494
								c-0.318-1.249-0.511-2.523-0.665-3.8C197.701,371.345,199.132,370.763,199.977,370.738z"/>
							<g>
								<path style="fill:#8D415F;" d="M208.392,372.016c0.185,0.861,0.201,1.756,0.011,2.616c-0.095,0.428-0.247,0.865-0.565,1.167
									c-0.318,0.302-0.842,0.424-1.204,0.176c-0.459-0.314-0.435-0.979-0.475-1.533c-0.079-1.087-0.695-2.188-1.532-2.886
									c0.382,0.818,0.668,1.715,0.575,2.613c-0.093,0.898-0.636,1.793-1.49,2.09c-0.251-0.262-0.335-0.641-0.361-1.002
									c-0.026-0.362-0.004-0.729-0.086-1.083c-0.082-0.353-0.345-0.847-0.688-0.967c0.41,0.872,0.4,1.93-0.026,2.794
									c-0.089,0.18-0.199,0.356-0.361,0.475c-0.162,0.119-0.386,0.17-0.568,0.086c-0.196-0.09-0.301-0.315-0.317-0.53
									c-0.015-0.216,0.042-0.428,0.088-0.64c0.203-0.93,0.139-2.018-0.553-2.671c-0.711-0.671-1.894-0.636-2.723-0.117
									c-0.086,0.054-0.155,0.127-0.234,0.188c0.145,1.131,0.321,2.259,0.603,3.366c0.132,0.518,0.285,1.039,0.566,1.494
									c0.281,0.455,0.708,0.842,1.227,0.97c0.805,0.198,1.609-0.244,2.388-0.527c0.986-0.358,2.06-0.468,3.098-0.319
									c0.426,0.061,0.86,0.165,1.281,0.077c0.531-0.112,0.962-0.523,1.214-1.004c0.252-0.48,0.348-1.026,0.412-1.564
									C208.803,374.188,208.778,373.042,208.392,372.016z"/>
							</g>
						</g>
						<g>
							<path style="fill:#D46571;" d="M191.51,368.408c-1.19-0.473-2.661-0.838-3.654-0.03c-0.99,0.805-0.932,2.354-0.475,3.545
								c0.457,1.191,1.223,2.286,1.388,3.551c0.15,1.14-0.208,2.28-0.3,3.426c-0.092,1.146,0.189,2.473,1.191,3.038
								c1.199,0.677,2.673-0.083,3.832-0.827c1.42-0.911,2.841-1.822,4.261-2.732c0.792-0.508,1.606-1.036,2.146-1.807
								c1.553-2.216-0.233-3.562-1.921-4.718C195.959,370.471,193.786,369.312,191.51,368.408z"/>
							<path style="fill:#8D415F;" d="M199.343,372.888c0.131,0.678,0.069,1.393-0.241,2.012c-0.425,0.849-1.199,1.461-1.966,2.019
								c-1.352,0.985-2.757,1.897-4.208,2.729c-0.459,0.263-0.93,0.522-1.448,0.632c-0.517,0.11-1.094,0.052-1.513-0.271
								c-0.632-0.487-0.726-1.413-0.584-2.198c0.142-0.785,0.466-1.544,0.471-2.342c0.007-1.089-0.577-2.089-1.211-2.974
								c-0.577-0.807-1.208-1.601-1.563-2.521c-0.059,0.646,0.068,1.343,0.3,1.949c0.457,1.191,1.223,2.286,1.388,3.551
								c0.15,1.14-0.208,2.28-0.3,3.426c-0.092,1.146,0.189,2.473,1.191,3.038c1.199,0.677,2.673-0.083,3.832-0.827
								c1.42-0.911,2.841-1.822,4.261-2.732c0.793-0.508,1.606-1.036,2.146-1.807C201.018,374.979,200.403,373.835,199.343,372.888z
								"/>
						</g>
					</g>
				</g>
				<g>
					<g>
						<path style="fill:#FFFFFF;" d="M196.647,347.925c-0.082,0-0.165-0.007-0.249-0.021c-1.159-0.193-2.349-0.306-3.537-0.333
							c-0.828-0.02-1.484-0.707-1.464-1.535c0.02-0.828,0.681-1.464,1.535-1.465c1.33,0.031,2.662,0.157,3.961,0.374
							c0.817,0.137,1.369,0.909,1.232,1.727C198.002,347.406,197.367,347.925,196.647,347.925z"/>
					</g>
					<g>
						<path style="fill:#FFFFFF;" d="M169.392,360.168c-0.274,0-0.551-0.075-0.8-0.231c-0.7-0.443-0.909-1.369-0.467-2.069
							c2.517-3.983,5.981-7.302,10.018-9.595c2.421-1.377,5.05-2.389,7.813-3.008c0.808-0.177,1.61,0.327,1.792,1.136
							c0.181,0.809-0.328,1.61-1.136,1.792c-2.474,0.554-4.825,1.458-6.987,2.688c-3.61,2.052-6.709,5.022-8.964,8.589
							C170.376,359.921,169.889,360.168,169.392,360.168z"/>
					</g>
				</g>
			</g>
			<g>
				<g>
					<g>
						<path style="fill:#00656C;" d="M254.157,357.57c-0.955,6.025-0.381,12.176,0.196,18.25c0.329,3.464,0.666,6.967,1.811,10.253
							c1.145,3.286,3.198,6.384,6.229,8.092c3.031,1.708,7.125,1.75,9.807-0.467c2.522-2.084,3.325-5.548,3.979-8.753
							c1.695-8.309,3.389-16.617,5.084-24.926c0.683-3.348,1.366-6.822,0.598-10.152c-0.845-3.667-3.524-6.862-6.987-8.335
							C263.252,336.589,255.751,347.517,254.157,357.57z"/>
						<path style="fill:#009F9A;" d="M264.966,342.166c2.91-1.301,6.12-1.223,9.541,0.232c3.193,1.358,5.66,4.301,6.439,7.681
							c0.736,3.19,0.025,6.676-0.603,9.752l-5.084,24.926c-0.672,3.292-1.457,6.399-3.657,8.216
							c-0.422,0.349-0.897,0.643-1.413,0.873c-2.183,0.976-5.061,0.78-7.333-0.501c-2.535-1.429-4.596-4.121-5.803-7.582
							c-1.114-3.197-1.444-6.672-1.764-10.033c-0.563-5.933-1.146-12.068-0.204-18.013
							C256.488,348.875,261.284,343.814,264.966,342.166C264.966,342.166,264.966,342.167,264.966,342.166z"/>
						<g>
							<path style="fill:#00C6C1;" d="M279.091,365.967l1.251-6.136c0.089-0.435,0.178-0.879,0.266-1.328
								c-8.551,0.981-17.169,1.385-25.775,1.208c-0.205,1.962-0.271,3.938-0.238,5.918c0.007,0.447,0.03,0.894,0.046,1.341
								C262.802,367.16,270.973,366.819,279.091,365.967z"/>
							<path style="fill:#00C6C1;" d="M281.128,351.12c-0.048-0.349-0.103-0.698-0.182-1.041c-0.524-2.274-1.824-4.337-3.583-5.866
								c-5.473,0.553-10.967,0.872-16.467,0.952c-1.687,1.759-3.283,4.177-4.437,7.285
								C264.699,352.535,272.944,352.096,281.128,351.12z"/>
							<path style="fill:#00C6C1;" d="M276.049,380.883l1.52-7.45c-7.449,0.708-14.937,0.988-22.417,0.82
								c0.046,0.493,0.091,0.988,0.138,1.478c0.183,1.925,0.374,3.886,0.71,5.812C262.688,381.675,269.383,381.451,276.049,380.883z
								"/>
							<path style="fill:#00C6C1;" d="M258.476,388.835c1.165,1.979,2.659,3.542,4.38,4.511c2.272,1.281,5.151,1.477,7.333,0.501
								c0.516-0.231,0.991-0.524,1.413-0.873c1.379-1.139,2.202-2.786,2.79-4.666C269.096,388.703,263.786,388.879,258.476,388.835z
								"/>
						</g>
						<path style="fill:#00656C;" d="M277.753,362.788c-0.276-0.132-6.212-3.105-5.556-13.562c0.222-1.049,0.346-2.121,0.362-3.198
							c0-0.01-0.002-0.019-0.003-0.028c0-0.037-0.005-0.072-0.009-0.108c-0.004-0.032-0.007-0.065-0.013-0.096
							c-0.008-0.036-0.02-0.07-0.031-0.105c-0.009-0.028-0.017-0.057-0.029-0.084c-0.017-0.04-0.038-0.077-0.06-0.114
							c-0.011-0.018-0.02-0.037-0.032-0.055c-0.03-0.045-0.065-0.087-0.102-0.127c-0.006-0.007-0.012-0.014-0.018-0.021
							c-0.044-0.045-0.093-0.086-0.145-0.123c-0.001-0.001-0.002-0.001-0.003-0.002c-0.052-0.036-0.107-0.067-0.166-0.094
							c-0.004-0.002-0.007-0.004-0.01-0.005c-0.05-0.022-0.103-0.039-0.158-0.052c-0.016-0.004-0.031-0.009-0.047-0.013
							c-0.014-0.003-0.026-0.009-0.04-0.011c-0.029-0.005-0.058-0.003-0.088-0.005c-0.022-0.002-0.043-0.008-0.066-0.008
							c-0.01,0-0.019,0.002-0.029,0.003c-0.033,0-0.064,0.005-0.096,0.008c-0.038,0.004-0.076,0.008-0.113,0.016
							c-0.024,0.005-0.047,0.014-0.07,0.021c-0.043,0.013-0.085,0.025-0.125,0.043c-0.018,0.008-0.034,0.018-0.051,0.027
							c-0.043,0.022-0.084,0.044-0.123,0.071c-0.016,0.011-0.029,0.024-0.044,0.035c-0.037,0.029-0.073,0.058-0.105,0.092
							c-0.016,0.016-0.029,0.034-0.044,0.052c-0.028,0.033-0.055,0.065-0.079,0.101c-0.015,0.022-0.026,0.046-0.039,0.069
							c-0.02,0.035-0.039,0.07-0.054,0.108c-0.011,0.026-0.018,0.054-0.027,0.081c-0.012,0.038-0.024,0.076-0.032,0.116
							c-0.002,0.008-0.005,0.016-0.007,0.025c-0.18,1.089-0.293,2.113-0.36,3.088c-0.613,2.777-2.017,5.369-4.047,7.38
							c-2.733,2.708-6.507,4.275-10.355,4.299c-0.572,0.004-1.033,0.47-1.03,1.043c0.003,0.547,0.431,0.993,0.968,1.028
							c0.025,0.002,0.05,0.002,0.075,0.002c4.385-0.027,8.686-1.813,11.8-4.9c1.083-1.073,2.005-2.293,2.757-3.609
							c1.173,7.884,6.289,10.364,6.568,10.493c0.119,0.055,0.243,0.086,0.367,0.094c0.412,0.027,0.817-0.198,1.004-0.595
							C278.49,363.649,278.267,363.033,277.753,362.788z"/>
					</g>
				</g>
				<g>
					<g>
						<path style="fill:#00656C;" d="M311.427,362.862c0.187,6.098-1.16,12.127-2.499,18.079c-0.764,3.395-1.541,6.828-3.092,9.942
							c-1.551,3.115-3.978,5.929-7.201,7.24c-3.223,1.312-7.289,0.836-9.67-1.701c-2.239-2.386-2.598-5.923-2.842-9.186
							c-0.632-8.456-1.264-16.912-1.896-25.368c-0.255-3.408-0.493-6.94,0.689-10.146c1.302-3.531,4.362-6.363,7.984-7.386
							C305.054,340.9,311.115,352.688,311.427,362.862z"/>
						<path style="fill:#009F9A;" d="M302.649,346.216c-2.722-1.658-5.916-1.986-9.494-0.975c-3.338,0.944-6.157,3.552-7.357,6.806
							c-1.133,3.072-0.867,6.62-0.633,9.75l1.896,25.368c0.251,3.351,0.637,6.531,2.59,8.612c0.375,0.399,0.809,0.751,1.292,1.045
							c2.042,1.244,4.922,1.413,7.338,0.429c2.696-1.097,5.08-3.508,6.714-6.789c1.509-3.031,2.275-6.436,3.016-9.73
							c1.308-5.814,2.661-11.827,2.477-17.844C310.213,353.941,306.094,348.315,302.649,346.216
							C302.65,346.216,302.65,346.217,302.649,346.216z"/>
						<g>
							<path style="fill:#00C6C1;" d="M285.632,368.043l-0.467-6.245c-0.033-0.442-0.066-0.895-0.096-1.351
								c8.359,2.053,16.857,3.542,25.416,4.453c-0.044,1.972-0.229,3.941-0.511,5.9c-0.064,0.443-0.143,0.883-0.215,1.324
								C301.64,371.284,293.578,369.913,285.632,368.043z"/>
							<path style="fill:#00C6C1;" d="M285.487,353.058c0.091-0.341,0.19-0.679,0.312-1.01c0.807-2.19,2.357-4.072,4.295-5.366
								c5.359,1.239,10.77,2.25,16.215,3.024c1.452,1.957,2.729,4.558,3.482,7.786C301.605,356.536,293.481,355.059,285.487,353.058
								z"/>
							<path style="fill:#00C6C1;" d="M286.766,383.223l-0.567-7.583c7.3,1.643,14.693,2.866,22.134,3.645
								c-0.108,0.483-0.215,0.968-0.323,1.449c-0.424,1.886-0.862,3.808-1.438,5.676
								C299.921,385.696,293.307,384.629,286.766,383.223z"/>
							<path style="fill:#00C6C1;" d="M303.195,393.331c-1.405,1.816-3.085,3.178-4.914,3.922c-2.415,0.983-5.296,0.815-7.338-0.429
								c-0.483-0.294-0.917-0.645-1.292-1.045c-1.224-1.304-1.832-3.041-2.178-4.981
								C292.676,391.859,297.922,392.704,303.195,393.331z"/>
						</g>
						<path style="fill:#00656C;" d="M287.361,365.058c0.29-0.096,6.555-2.296,7.224-12.752c-0.088-1.069-0.075-2.147,0.044-3.218
							c0.001-0.01,0.005-0.018,0.006-0.028c0.005-0.036,0.014-0.071,0.023-0.106c0.008-0.032,0.015-0.064,0.025-0.094
							c0.012-0.035,0.028-0.068,0.044-0.101c0.013-0.027,0.024-0.054,0.039-0.079c0.022-0.037,0.048-0.071,0.074-0.105
							c0.013-0.017,0.025-0.035,0.039-0.05c0.036-0.041,0.076-0.078,0.118-0.113c0.007-0.006,0.013-0.013,0.02-0.018
							c0.05-0.039,0.103-0.074,0.16-0.104c0.001,0,0.002-0.001,0.003-0.002c0.056-0.03,0.115-0.053,0.177-0.072
							c0.004-0.001,0.007-0.003,0.011-0.004c0.053-0.015,0.107-0.025,0.163-0.032c0.016-0.002,0.032-0.005,0.049-0.007
							c0.014-0.001,0.027-0.005,0.041-0.006c0.03-0.001,0.058,0.004,0.088,0.006c0.022,0.001,0.044-0.002,0.066,0
							c0.01,0.001,0.019,0.005,0.029,0.006c0.032,0.005,0.063,0.013,0.094,0.02c0.037,0.009,0.075,0.017,0.11,0.03
							c0.023,0.008,0.045,0.019,0.067,0.029c0.041,0.018,0.081,0.036,0.118,0.059c0.016,0.01,0.031,0.022,0.047,0.033
							c0.039,0.027,0.078,0.055,0.113,0.086c0.014,0.013,0.026,0.027,0.039,0.041c0.033,0.033,0.065,0.067,0.093,0.104
							c0.014,0.018,0.025,0.038,0.037,0.057c0.023,0.036,0.047,0.072,0.066,0.11c0.012,0.024,0.02,0.049,0.03,0.074
							c0.015,0.037,0.03,0.074,0.04,0.114c0.007,0.027,0.011,0.056,0.016,0.084c0.007,0.04,0.014,0.079,0.017,0.119
							c0.001,0.009,0.003,0.017,0.004,0.025c0.041,1.103,0.024,2.133-0.032,3.109c0.258,2.832,1.323,5.581,3.083,7.832
							c2.369,3.032,5.915,5.063,9.729,5.573c0.567,0.076,0.966,0.597,0.89,1.164c-0.073,0.542-0.552,0.93-1.09,0.897
							c-0.025-0.002-0.05-0.004-0.075-0.007c-4.346-0.581-8.387-2.896-11.087-6.351c-0.938-1.201-1.7-2.528-2.279-3.928
							c-2.16,7.673-7.547,9.487-7.84,9.579c-0.125,0.04-0.252,0.054-0.376,0.047c-0.412-0.025-0.785-0.299-0.921-0.717
							C286.522,365.819,286.82,365.236,287.361,365.058z"/>
					</g>
				</g>
				<path style="fill:#FFB25B;" d="M252.179,387.527c6.091-2.93,13.147-3.112,19.87-2.419c6.724,0.693,13.366,2.201,20.12,2.447
					c8.588,0.313,17.245-1.459,25.02-5.121c-2.061,4.478-4.559,9.443-8.803,11.952c-3.485,2.06-7.721,2.261-11.766,2.408
					c-4.757,0.173-9.514,0.347-14.271,0.52c-5.373,0.196-10.823,0.384-16.055-0.855
					C261.063,395.219,254.901,392.164,252.179,387.527z"/>
			</g>
		</g>
	</g>
</g>
</svg>
